<?xml version="1.0" encoding="UTF-8"?>
<svg width="18px" height="18px" viewBox="0 0 18 18" version="1.1" xmlns="http://www.w3.org/2000/svg" xmlns:xlink="http://www.w3.org/1999/xlink">
    <!-- Generator: Sketch 60.1 (88133) - https://sketch.com -->
    <title>Group 6</title>
    <desc>Created with Sketch.</desc>
    <g id="0415-PC-메인" stroke="none" stroke-width="1" fill="none" fill-rule="evenodd" stroke-linejoin="round">
        <g id="캘린더_월" transform="translate(-12.000000, -443.000000)" stroke="#262626" stroke-width="1.3">
            <g id="Group-9" transform="translate(0.000000, 96.000000)">
                <g id="Group-7-Copy" transform="translate(12.000000, 345.000000)">
                    <g id="Group-6" transform="translate(0.000000, 2.000000)">
                        <g id="calendar_icon_setting">
                            <g id="commonIcoSetting" transform="translate(0.500000, 0.500000)">
                                <path d="M11.5,8.5 C11.5,10.156885 10.156885,11.5 8.5,11.5 C6.843115,11.5 5.5,10.156885 5.5,8.5 C5.5,6.843115 6.843115,5.5 8.5,5.5 C10.156885,5.5 11.5,6.843115 11.5,8.5 Z" id="Stroke-1"></path>
                                <path d="M15.4534259,8.5 C15.4534259,8.20535059 15.4315012,7.91646118 15.3932235,7.63178824 L16.5,6.32582118 C16.1196471,5.02637647 15.4071812,3.86121224 14.4550965,2.92048706 L12.7283529,3.18981412 C12.2515153,2.83761741 11.7268329,2.54373694 11.1642729,2.31891435 L10.5431106,0.744389035 C9.88925176,0.585171671 9.20509176,0.5 8.50019765,0.5 C7.79530824,0.5 7.11114824,0.585171671 6.45728941,0.744389035 L5.83612235,2.31891435 C5.27356706,2.54373694 4.74848612,2.83761741 4.27204659,3.18981412 L2.54530165,2.92048706 C1.59321976,3.86121224 0.880753035,5.02637647 0.5,6.32582118 L1.60717412,7.63178824 C1.56889929,7.91607529 1.54697129,8.20535059 1.54697129,8.5 C1.54697129,8.79464941 1.56889929,9.08392471 1.60717412,9.36821176 L0.5,10.6741788 C0.880753035,11.9736235 1.59321976,13.1387859 2.54530165,14.0795106 L4.27204659,13.8101882 C4.74848612,14.1623812 5.27356706,14.4562635 5.83612235,14.6810871 L6.45728941,16.2556094 C7.11074824,16.4144424 7.79530824,16.5 8.50019765,16.5 C9.20509176,16.5 9.88925176,16.4144424 10.5431106,16.2556094 L11.1642729,14.6810871 C11.7268329,14.4562635 12.2519106,14.1623812 12.7283529,13.8101882 L14.4550965,14.0795106 C15.4071812,13.1387859 16.1196471,11.9736235 16.5,10.6741788 L15.3932235,9.36821176 C15.4315012,9.08353882 15.4534259,8.79464941 15.4534259,8.5 Z" id="Stroke-3"></path>
                            </g>
                        </g>
                    </g>
                </g>
            </g>
        </g>
    </g>
</svg>