<?xml version="1.0" encoding="UTF-8"?>
<svg width="18px" height="18px" viewBox="0 0 18 18" version="1.1" xmlns="http://www.w3.org/2000/svg" xmlns:xlink="http://www.w3.org/1999/xlink">
    <title>icon</title>
    <g id="Page-1" stroke="none" stroke-width="1" fill="none" fill-rule="evenodd" opacity="0.699999988" stroke-linejoin="round">
        <g id="200518_5차_대시보드_guide" transform="translate(-462.000000, -489.000000)" stroke="#000000" stroke-width="1.2">
            <g id="유료사용자" transform="translate(100.000000, 438.000000)">
                <g id="icon" transform="translate(363.000000, 52.000000)">
                    <path d="M11,8 C11,9.65688488 9.65688488,11 8,11 C6.34311512,11 5,9.65688488 5,8 C5,6.34311512 6.34311512,5 8,5 C9.65688488,5 11,6.34311512 11,8 Z" id="Stroke-1"></path>
                    <path d="M14.9534275,8 C14.9534275,7.705352 14.9314993,7.41645885 14.8932247,7.13178592 L16,5.82582007 C15.6196457,4.52637637 14.907179,3.36121235 13.9550971,2.42048724 L12.2283521,2.68981393 C11.7515138,2.33761749 11.2268321,2.04373681 10.6642745,1.81891425 L10.0431088,0.244389027 C9.38925021,0.0851716862 8.70509083,0 8.00019935,0 C7.29530787,0 6.61114849,0.0851716862 5.95728988,0.244389027 L5.33612419,1.81891425 C4.77356657,2.04373681 4.24848621,2.33761749 3.77204655,2.68981393 L2.04530164,2.42048724 C1.09321971,3.36121235 0.380753034,4.52637637 0,5.82582007 L1.10717401,7.13178592 C1.06889935,7.4160752 1.04697117,7.705352 1.04697117,8 C1.04697117,8.294648 1.06889935,8.5839248 1.10717401,8.86821408 L0,10.1741799 C0.380753034,11.4736236 1.09321971,12.6387876 2.04530164,13.5795128 L3.77204655,13.3101861 C4.24848621,13.6623825 4.77356657,13.9562632 5.33612419,14.1810857 L5.95728988,15.755611 C6.61074979,15.9144447 7.29530787,16 8.00019935,16 C8.70509083,16 9.38925021,15.9144447 10.0431088,15.755611 L10.6642745,14.1810857 C11.2268321,13.9562632 11.7519125,13.6623825 12.2283521,13.3101861 L13.9550971,13.5795128 C14.907179,12.6387876 15.6196457,11.4736236 16,10.1741799 L14.8932247,8.86821408 C14.9314993,8.58354115 14.9534275,8.294648 14.9534275,8 Z" id="Stroke-3"></path>
                </g>
            </g>
        </g>
    </g>
</svg>