<?xml version="1.0" encoding="UTF-8"?>
<svg width="33px" height="33px" viewBox="0 0 33 33" version="1.1" xmlns="http://www.w3.org/2000/svg" xmlns:xlink="http://www.w3.org/1999/xlink">
    <!-- Generator: Sketch 53.2 (72643) - https://sketchapp.com -->
    <title>tabmenu_btn_more</title>
    <desc>Created with Sketch.</desc>
    <g id="Page-1" stroke="none" stroke-width="1" fill="none" fill-rule="evenodd">
        <g id="190404_프레임개선-가이드" transform="translate(-198.000000, -721.000000)" fill="#343740">
            <g id="TAB" transform="translate(181.000000, 423.000000)">
                <g id="tab_on" transform="translate(1.000000, 144.000000)">
                    <g id="tabmenu_btn_more" transform="translate(16.000000, 154.000000)">
                        <path d="M9.47826087,14.195 C9.77811094,14.325 10.0404798,14.505 10.2678661,14.7325 C10.4952524,14.96 10.6751624,15.2225 10.8050975,15.525 C10.9350325,15.8225 11,16.15 11,16.5 C11,16.8525 10.9350325,17.1775 10.8050975,17.4775 C10.6751624,17.775 10.4952524,18.04 10.2678661,18.2675 C10.0404798,18.495 9.77811094,18.675 9.47826087,18.805 C9.17841079,18.935 8.85357321,19 8.50124938,19 C8.15142429,19 7.82658671,18.935 7.52423788,18.805 C7.22438781,18.675 6.96201899,18.495 6.73213393,18.2675 C6.50724638,18.04 6.32733633,17.775 6.1974013,17.4775 C6.06996502,17.1775 6,16.8525 6,16.5 C6,16.15 6.06996502,15.8225 6.1974013,15.525 C6.32733633,15.2225 6.50724638,14.96 6.73213393,14.7325 C6.96201899,14.505 7.22438781,14.325 7.52423788,14.195 C7.82658671,14.065 8.15142429,14 8.50124938,14 C8.85357321,14 9.17841079,14.065 9.47826087,14.195 Z M16.5012494,14 C16.8535732,14 17.1784108,14.065 17.4782609,14.195 C17.7781109,14.325 18.0404798,14.505 18.2678661,14.7325 C18.4952524,14.96 18.6751624,15.2225 18.8050975,15.525 C18.9350325,15.8225 19,16.15 19,16.5 C19,16.8525 18.9350325,17.1775 18.8050975,17.4775 C18.6751624,17.775 18.4952524,18.04 18.2678661,18.2675 C18.0404798,18.495 17.7781109,18.675 17.4782609,18.805 C17.1784108,18.935 16.8535732,19 16.5012494,19 C16.1514243,19 15.8265867,18.935 15.5242379,18.805 C15.2243878,18.675 14.962019,18.495 14.7321339,18.2675 C14.5072464,18.04 14.3273363,17.775 14.1974013,17.4775 C14.069965,17.1775 14,16.8525 14,16.5 C14,16.15 14.069965,15.8225 14.1974013,15.525 C14.3273363,15.2225 14.5072464,14.96 14.7321339,14.7325 C14.962019,14.505 15.2243878,14.325 15.5242379,14.195 C15.8265867,14.065 16.1514243,14 16.5012494,14 Z M24.5012494,14 C24.8535732,14 25.1784108,14.065 25.4782609,14.195 C25.7781109,14.325 26.0404798,14.505 26.2678661,14.7325 C26.4952524,14.96 26.6751624,15.2225 26.8050975,15.525 C26.9350325,15.8225 27,16.15 27,16.5 C27,16.8525 26.9350325,17.1775 26.8050975,17.4775 C26.6751624,17.775 26.4952524,18.04 26.2678661,18.2675 C26.0404798,18.495 25.7781109,18.675 25.4782609,18.805 C25.1784108,18.935 24.8535732,19 24.5012494,19 C24.1514243,19 23.8265867,18.935 23.5242379,18.805 C23.2243878,18.675 22.962019,18.495 22.7321339,18.2675 C22.5072464,18.04 22.3273363,17.775 22.1974013,17.4775 C22.069965,17.1775 22,16.8525 22,16.5 C22,16.15 22.069965,15.8225 22.1974013,15.525 C22.3273363,15.2225 22.5072464,14.96 22.7321339,14.7325 C22.962019,14.505 23.2243878,14.325 23.5242379,14.195 C23.8265867,14.065 24.1514243,14 24.5012494,14 Z" id="ico_more"></path>
                    </g>
                </g>
            </g>
        </g>
    </g>
</svg>