<?xml version="1.0" encoding="UTF-8"?>
<svg width="178px" height="119px" viewBox="0 0 178 119" version="1.1" xmlns="http://www.w3.org/2000/svg" xmlns:xlink="http://www.w3.org/1999/xlink">
    <!-- Generator: Sketch 54.1 (76490) - https://sketchapp.com -->
    <title>birthday_img_placeholder</title>
    <desc>Created with Sketch.</desc>
    <g id="Page-1" stroke="none" stroke-width="1" fill="none" fill-rule="evenodd">
        <g id="2019년_5차_생일인친구" transform="translate(-1109.000000, -689.000000)">
            <g id="Group-2" transform="translate(1109.000000, 689.000000)">
                <g id="image">
                    <rect id="Rectangle" x="0" y="0" width="178" height="119"></rect>
                    <g id="Group-119" transform="translate(46.927273, 1.622727)">
                        <path d="M58.8546508,77.6572292 C56.6620935,79.4492807 53.7213835,81.8523924 48.419684,81.5150363 C42.7899333,81.156626 38.6089939,77.5034849 35.5786819,74.1211101 C32.6090839,70.8063044 32.9831602,66.9054098 35.1840412,64.568888 C37.6160269,61.9875504 41.4033049,62.5991002 44.135433,64.8391646 C47.1559524,67.3152314 48.8833624,68.9931987 49.6633409,69.0563612 C50.7385655,68.8663842 51.6923622,67.3167003 54.8935546,64.423957 C58.7493806,60.9402285 60.9835563,60.5818182 64.1455785,60.5818182 C67.8564743,60.5818182 71.918434,63.9896538 74.3778389,68.8747079 C76.9204807,73.9257471 78.2121212,79.0800985 78.2121212,85.9104588 C78.2121212,90.1477303 77.3949309,93.1197939 76.2056228,95.6898699 C74.3509093,99.696525 71.0390608,102.353266 65.9596528,103.824119 C61.688132,105.061418 59.2409678,105.305744 54.2800499,106.439731 C49.817574,107.460123 43.2443087,107.908136 42.1759389,103.085265 C41.5619446,100.315419 42.7938503,97.580827 45.4579201,96.028695 C49.5443612,93.6485959 52.4463904,92.8039815 58.0115102,91.6969245" id="Fill-1" fill="#EE9F3F"></path>
                        <g id="Group-6" transform="translate(25.351515, 66.531818)">
                            <path d="M13.9228139,0.0638655871 C13.9228139,0.0638655871 4.49524167,4.23838784 1.30211944,12.6407344 C-0.489252778,17.3536077 0.0323861111,21.3333351 3.624525,22.5801193 C7.27649167,23.8482243 10.3464972,22.5224561 12.7732306,18.0678556 C15.4234528,13.2037983 18.7550194,9.9887135 23.3108306,8.2835314" id="Fill-3" fill="#EE9F3F"></path>
                            <path d="M13.9228139,0.0638655871 C13.9228139,0.0638655871 4.49524167,4.23838784 1.30211944,12.6407344 C-0.489252778,17.3536077 0.0323861111,21.3333351 3.624525,22.5801193 C7.27649167,23.8482243 10.3464972,22.5224561 12.7732306,18.0678556 C15.4234528,13.2037983 18.7550194,9.9887135 23.3108306,8.2835314" id="Stroke-5" stroke="#0F1216" stroke-width="1.89" stroke-linecap="round" stroke-linejoin="round"></path>
                        </g>
                        <path d="M57.8491839,91.9404859 C57.8491839,91.9404859 54.1362281,92.8798315 52.4429653,93.3423469 C48.8532281,94.323156 43.7048743,92.4197842 43.1737423,84.0678519 C42.6426103,75.7154261 51.7781807,75.7272728 54.7394033,75.7272728 C56.816234,75.7272728 59.8927256,78.2871499 60.3483366,83.3452025 C60.6529053,86.72349 59.8743422,89.7513122 57.8491839,91.9404859" id="Fill-7" fill="#FFFFFE"></path>
                        <path d="M4.33479529,88.7090909 C4.33479529,88.7090909 4.31613654,94.4283389 4.3151545,96.2105589 C4.31417247,98.7118686 4.55379003,100.904083 7.05798998,102.483028 C9.67954362,104.135803 14.9643876,106.254681 25.2384817,106.509143 C34.6832436,106.742933 42.9544688,106.254681 46.2521564,102.906804 C48.2113246,100.917864 48.9940099,99.4043799 49.0003931,97.4395574 C49.0151237,93.0846601 49.0848485,88.7090909 49.0848485,88.7090909 L4.33479529,88.7090909 Z" id="Fill-9" fill="#F4C5C4"></path>
                        <path d="M4.33479529,88.7090909 C4.33479529,88.7090909 4.31613654,94.4283389 4.3151545,96.2105589 C4.31417247,98.7118686 4.55379003,100.904083 7.05798998,102.483028 C9.67954362,104.135803 14.9643876,106.254681 25.2384817,106.509143 C34.6832436,106.742933 42.9544688,106.254681 46.2521564,102.906804 C48.2113246,100.917864 48.9940099,99.4043799 49.0003931,97.4395574 C49.0151237,93.0846601 49.0848485,88.7090909 49.0848485,88.7090909 L4.33479529,88.7090909 Z" id="Stroke-11" stroke="#0F1216" stroke-width="1.89" stroke-linecap="round" stroke-linejoin="round"></path>
                        <path d="M2.67439928,93.1623753 C3.74991836,93.9066752 5.13209776,94.1045703 6.57708119,93.349547 C8.28113127,92.4590192 8.62998805,90.5073644 10.4733846,90.4181654 C12.2525051,90.3318909 12.6465023,91.5294973 13.3633514,92.8445734 C14.0802006,94.1586746 16.2812857,95.035067 18.0088873,93.8754799 C19.1815564,93.0882865 20.3542254,93.0254085 21.843368,94.3989757 C23.5243572,95.9494787 24.7009515,97.1933905 27.6748206,97.0335147 C30.2085709,96.8975228 32.1653091,95.2485597 34.3389174,94.5354551 C34.9174014,94.3458463 35.7559334,94.2444616 36.3560063,94.2532353 C40.6654425,94.3161133 41.077594,97.9045455 45.7353963,97.9045455 C50.9957248,97.9045455 51.6080641,92.3049925 51.7557517,90.129609 C51.9461264,87.3278828 51.2175015,82.0709905 45.3870301,79.8361411 C39.5565588,77.6008042 36.3300015,78.8125459 33.1608511,78.7184726 C29.9921914,78.6239119 26.7307975,76.4607142 20.4175201,77.7694537 C13.6366471,79.175191 11.7667551,77.5564484 7.27234147,79.3555388 C4.03842439,80.6496555 1.11999944,83.3300126 0.631305556,86.9818102 C0.259387918,89.7577028 1.03119061,92.0252098 2.67439928,93.1623753" id="Fill-13" fill="#FFFFFE"></path>
                        <path d="M2.67439928,93.1623753 C3.74991836,93.9066752 5.13209776,94.1045703 6.57708119,93.349547 C8.28113127,92.4590192 8.62998805,90.5073644 10.4733846,90.4181654 C12.2525051,90.3318909 12.6465023,91.5294973 13.3633514,92.8445734 C14.0802006,94.1586746 16.2812857,95.035067 18.0088873,93.8754799 C19.1815564,93.0882865 20.3542254,93.0254085 21.843368,94.3989757 C23.5243572,95.9494787 24.7009515,97.1933905 27.6748206,97.0335147 C30.2085709,96.8975228 32.1653091,95.2485597 34.3389174,94.5354551 C34.9174014,94.3458463 35.7559334,94.2444616 36.3560063,94.2532353 C40.6654425,94.3161133 41.077594,97.9045455 45.7353963,97.9045455 C50.9957248,97.9045455 51.6080641,92.3049925 51.7557517,90.129609 C51.9461264,87.3278828 51.2175015,82.0709905 45.3870301,79.8361411 C39.5565588,77.6008042 36.3300015,78.8125459 33.1608511,78.7184726 C29.9921914,78.6239119 26.7307975,76.4607142 20.4175201,77.7694537 C13.6366471,79.175191 11.7667551,77.5564484 7.27234147,79.3555388 C4.03842439,80.6496555 1.11999944,83.3300126 0.631305556,86.9818102 C0.259387918,89.7577028 1.03119061,92.0252098 2.67439928,93.1623753 Z" id="Stroke-15" stroke="#040605" stroke-width="1.89" stroke-linecap="round" stroke-linejoin="round"></path>
                        <path d="M25.8909091,78.2564623 C25.8909091,79.3263827 24.7240849,80.1680154 23.4427664,80.042031 C22.4072291,79.9402015 21.5034874,79.3420123 21.5803258,78.1134274 C21.6469869,77.0454015 22.5222322,76.2681818 23.8366268,76.2681818 C24.9866585,76.2681818 25.8909091,77.186542 25.8909091,78.2564623" id="Fill-17" fill="#F4C5C4"></path>
                        <path d="M25.8909091,78.2564623 C25.8909091,79.3263827 24.7240849,80.1680154 23.4427664,80.042031 C22.4072291,79.9402015 21.5034874,79.3420123 21.5803258,78.1134274 C21.6469869,77.0454015 22.5222322,76.2681818 23.8366268,76.2681818 C24.9866585,76.2681818 25.8909091,77.186542 25.8909091,78.2564623 Z" id="Stroke-19" stroke="#0F1216" stroke-width="1.89" stroke-linecap="round" stroke-linejoin="round"></path>
                        <path d="M35.0606061,85.2552571 C35.0606061,86.3228851 34.1395481,87.200051 32.9799361,87.0743365 C32.0427596,86.9727252 31.1843336,86.3729819 31.2944,85.1503374 C31.37269,84.2788429 31.9824303,83.4087662 33.1125685,83.3085726 C34.2827726,83.2050708 35.0606061,84.0496266 35.0606061,85.2552571" id="Fill-21" fill="#F4C5C4"></path>
                        <path d="M35.0606061,85.2552571 C35.0606061,86.3228851 34.1395481,87.200051 32.9799361,87.0743365 C32.0427596,86.9727252 31.1843336,86.3729819 31.2944,85.1503374 C31.37269,84.2788429 31.9824303,83.4087662 33.1125685,83.3085726 C34.2827726,83.2050708 35.0606061,84.0496266 35.0606061,85.2552571 Z" id="Stroke-23" stroke="#0F1216" stroke-width="1.89" stroke-linecap="round" stroke-linejoin="round"></path>
                        <path d="M46.9272727,90.6541634 C46.9272727,91.7209074 45.9979715,92.657791 44.8456748,92.4717365 C43.7882894,92.300793 43.0372924,91.4333257 43.1658373,90.4067203 C43.2824031,89.4802255 44.0407719,88.7090909 44.9783663,88.7090909 C46.1536997,88.7090909 46.9272727,89.5718361 46.9272727,90.6541634" id="Fill-25" fill="#F4C5C4"></path>
                        <path d="M46.9272727,90.6541634 C46.9272727,91.7209074 45.9979715,92.657791 44.8456748,92.4717365 C43.7882894,92.300793 43.0372924,91.4333257 43.1658373,90.4067203 C43.2824031,89.4802255 44.0407719,88.7090909 44.9783663,88.7090909 C46.1536997,88.7090909 46.9272727,89.5718361 46.9272727,90.6541634 Z" id="Stroke-27" stroke="#0F1216" stroke-width="1.89" stroke-linecap="round" stroke-linejoin="round"></path>
                        <path d="M17.2606061,86.3242164 C17.2606061,87.3913118 16.3362957,88.3379515 15.1746749,88.1423882 C14.2909935,87.9940624 13.4793364,87.4531929 13.4848767,86.2188767 C13.4885702,85.3936374 14.1594109,84.4635308 15.1137313,84.3879508 C16.198711,84.3024509 17.2606061,85.1191874 17.2606061,86.3242164" id="Fill-29" fill="#F4C5C4"></path>
                        <path d="M17.2606061,86.3242164 C17.2606061,87.3913118 16.3362957,88.3379515 15.1746749,88.1423882 C14.2909935,87.9940624 13.4793364,87.4531929 13.4848767,86.2188767 C13.4885702,85.3936374 14.1594109,84.4635308 15.1137313,84.3879508 C16.198711,84.3024509 17.2606061,85.1191874 17.2606061,86.3242164 Z" id="Stroke-31" stroke="#0F1216" stroke-width="1.89" stroke-linecap="round" stroke-linejoin="round"></path>
                        <path d="M65.266597,22.9440099 C65.2862265,24.6719785 61.1552002,25.8185791 55.4739348,23.8407542 C49.451607,21.7441131 45.9722798,19.2147464 46.427684,17.9913798 C46.8364681,16.8946527 60.3827797,4.81060694 61.5350308,3.91973006 C62.6872819,3.02934213 63.3919806,2.79268768 63.8797735,4.64387312 C64.3675663,6.49505857 65.1861161,15.8605118 65.266597,22.9440099" id="Fill-33" fill="#86B2CB"></path>
                        <path d="M65.2666667,13.6879199 C65.2666667,16.241073 65.2666667,17.3224376 65.1491353,18.9318182 C63.7257555,16.0274823 59.0240008,11.3265016 55.5575758,8.95018167 C56.6128574,8.06104858 57.6341299,7.2141369 58.5303691,6.49090909 C61.8212472,8.87815692 64.124862,11.1193684 65.2666667,13.6879199" id="Fill-35" fill="#FFFFFE"></path>
                        <path d="M62.030303,22.1772727 C60.4415761,21.9021582 58.830674,21.5991335 57.284819,21.2896296 C55.1013051,17.9513737 52.3983996,15.5107289 50.1636364,13.8700095 C51.0166408,13.108959 51.9913622,12.2462356 53.0050134,11.3590909 C56.0173855,13.67414 59.5772377,17.2032815 62.030303,22.1772727" id="Fill-37" fill="#FFFFFE"></path>
                        <path d="M65.266597,25.6897756 C65.2862265,27.4035846 61.1552002,26.1747244 55.4739348,24.2131066 C49.451607,22.1336462 45.9722798,19.6250062 46.427684,18.4116643 C46.8364681,17.3239242 60.3827797,5.33841507 61.5350308,4.45532334 C62.6872819,3.57223161 63.3919806,3.33703145 63.8797735,5.17304753 C64.3675663,7.00954857 65.1861161,18.6643226 65.266597,25.6897756 Z" id="Stroke-39" stroke="#0F1216" stroke-width="1.89" stroke-linecap="round" stroke-linejoin="round"></path>
                        <path d="M66.0742473,1.8412665 C65.4512249,0.315060582 63.7385379,-0.40532089 62.2481804,0.232175782 C60.7573233,0.870184088 59.9644311,2.53504297 60.6768849,4.15078494 C61.3413755,5.65806038 63.1909576,6.37639531 64.6588323,5.68671191 C66.2556082,4.936144 66.6972697,3.36747242 66.0742473,1.8412665" id="Fill-41" fill="#FFFFFE"></path>
                        <path d="M66.0742473,1.8412665 C65.4512249,0.315060582 63.7385379,-0.40532089 62.2481804,0.232175782 C60.7573233,0.870184088 59.9644311,2.53504297 60.6768849,4.15078494 C61.3413755,5.65806038 63.1909576,6.37639531 64.6588323,5.68671191 C66.2556082,4.936144 66.6972697,3.36747242 66.0742473,1.8412665 Z" id="Stroke-43" stroke="#0F1216" stroke-width="1.89" stroke-linecap="round" stroke-linejoin="round"></path>
                        <g id="Group-48" transform="translate(15.103030, 21.095455)">
                            <path d="M4.52971044,12.9212364 C1.56254433,11.960101 -2.16826375,6.13943838 2.35615264,2.00881616 C5.96759484,-1.28856566 11.8170224,0.699094949 13.0751089,3.12188687" id="Fill-45" fill="#EE9F3F"></path>
                            <path d="M4.52971044,12.9212364 C1.56254433,11.960101 -2.16826375,6.13943838 2.35615264,2.00881616 C5.96759484,-1.28856566 11.8170224,0.699094949 13.0751089,3.12188687" id="Stroke-47" stroke="#0F1216" stroke-width="1.89" stroke-linecap="round" stroke-linejoin="round"></path>
                        </g>
                        <path d="M43.6059249,17.4095632 C33.6898131,18.1037278 26.9452928,22.1534286 22.1336444,28.4209389 C18.279144,33.4408093 16.7212121,39.4367112 16.7212121,45.3676421 C16.7212121,50.2155589 18.788026,55.9589042 22.0300104,60.0711335 C27.0582148,66.4505114 36.2791966,70.1108742 45.6267879,69.753289 C54.3995038,69.4176866 58.8914511,67.5154508 65.481498,61.8004388 C72.9338581,55.3385037 73.9956178,43.7883077 71.8168596,36.1686174 C70.3513184,31.0446956 67.4798744,26.056578 62.768927,22.4206404 C59.0537458,19.5531201 53.2062463,16.7373812 43.6059249,17.4095632" id="Fill-49" fill="#EE9F3F"></path>
                        <path d="M43.6059249,17.4095632 C33.6898131,18.1037278 26.9452928,22.1534286 22.1336444,28.4209389 C18.279144,33.4408093 16.7212121,39.4367112 16.7212121,45.3676421 C16.7212121,50.2155589 18.788026,55.9589042 22.0300104,60.0711335 C27.0582148,66.4505114 36.2791966,70.1108742 45.6267879,69.753289 C54.3995038,69.4176866 58.8914511,67.5154508 65.481498,61.8004388 C72.9338581,55.3385037 73.9956178,43.7883077 71.8168596,36.1686174 C70.3513184,31.0446956 67.4798744,26.056578 62.768927,22.4206404 C59.0537458,19.5531201 53.2062463,16.7373812 43.6059249,17.4095632 Z" id="Stroke-51" stroke="#0F1216" stroke-width="1.89" stroke-linecap="round" stroke-linejoin="round"></path>
                        <path d="M56.5860393,39.3244245 C56.8241492,40.342081 56.1944699,41.3612267 55.1796567,41.5995072 C54.1648435,41.8382842 53.1490402,41.2073372 52.9109303,40.1896807 C52.6728205,39.1715279 53.3024997,38.1528786 54.317313,37.9141016 C55.3321262,37.6753247 56.3479295,38.3067681 56.5860393,39.3244245" id="Fill-53" fill="#0F1216"></path>
                        <path d="M35.0102884,44.192617 C35.2483671,45.2102808 34.6187701,46.2289375 33.6040895,46.4677162 C32.588914,46.7064949 31.5737384,46.0750469 31.3351648,45.057383 C31.097086,44.0397192 31.726683,43.0210625 32.7418585,42.7822838 C33.7565391,42.5435051 34.7722096,43.1749531 35.0102884,44.192617" id="Fill-55" fill="#0F1216"></path>
                        <g id="Group-60" transform="translate(49.084848, 31.913636)">
                            <path d="M0.403121455,2.36999318 C0.403121455,2.36999318 4.56006873,1.29673939 9.51655964,0.419565152" id="Fill-57" fill="#0F1216"></path>
                            <path d="M0.403121455,2.36999318 C0.403121455,2.36999318 4.56006873,1.29673939 9.51655964,0.419565152" id="Stroke-59" stroke="#040605" stroke-width="2.43" stroke-linecap="round" stroke-linejoin="round"></path>
                        </g>
                        <g id="Group-64" transform="translate(37.757576, 45.977273)">
                            <path d="M6.27325781,2.14109848 C2.35459257,1.73049697 0.105097736,4.44614394 0.419358164,6.89898636 C0.67558615,8.90060758 2.84442572,10.4485606 4.96851146,10.1451364 C7.26276012,9.81773182 8.43472037,8.31578182 8.66881734,6.84662121 C9.4394685,8.12198182 10.8160177,8.88886212 13.0669879,8.33682576 C15.1502542,7.82638788 16.5833605,6.1291697 16.1643466,3.7066697 C15.7428737,1.26997727 12.5083027,-0.970957576 8.64127652,1.68302576 L7.56570914,2.46801364" id="Fill-61" fill="#FFFFFE"></path>
                            <path d="M6.27325781,2.14109848 C2.35459257,1.73049697 0.105097736,4.44614394 0.419358164,6.89898636 C0.67558615,8.90060758 2.84442572,10.4485606 4.96851146,10.1451364 C7.26276012,9.81773182 8.43472037,8.31578182 8.66881734,6.84662121 C9.4394685,8.12198182 10.8160177,8.88886212 13.0669879,8.33682576 C15.1502542,7.82638788 16.5833605,6.1291697 16.1643466,3.7066697 C15.7428737,1.26997727 12.5083027,-0.970957576 8.64127652,1.68302576 L7.56570914,2.46801364" id="Stroke-63" stroke="#040605" stroke-width="1.89" stroke-linecap="round" stroke-linejoin="round"></path>
                        </g>
                        <g id="Group-68" transform="translate(25.890909, 37.322727)">
                            <path d="M0.363022909,2.39049364 C0.363022909,2.39049364 4.51997018,1.10204818 9.47646109,0.04998" id="Fill-65" fill="#0F1216"></path>
                            <path d="M0.363022909,2.39049364 C0.363022909,2.39049364 4.51997018,1.10204818 9.47646109,0.04998" id="Stroke-67" stroke="#040605" stroke-width="2.43" stroke-linecap="round" stroke-linejoin="round"></path>
                        </g>
                        <path d="M42.6164074,47.5340163 C42.6775533,48.4519003 44.4391361,50.0125881 45.6271127,49.7299064 C46.6937681,49.4771558 47.5876622,47.6546905 47.4532383,46.4061403 C47.2964914,44.9494983 42.4480137,44.9865557 42.6164074,47.5340163" id="Fill-69" fill="#0F1216"></path>
                        <path d="M58.738943,50.3442922 C57.2406121,50.1012495 56.268584,51.0050161 56.1206889,52.1761814 C55.8483578,54.3267726 57.9816179,55.104613 59.4141609,54.3516469 C60.9726698,53.5323494 60.6743296,50.6578122 58.738943,50.3442922" id="Fill-71" fill="#FFFFFE"></path>
                        <path d="M58.738943,50.3442922 C57.2406121,50.1012495 56.268584,51.0050161 56.1206889,52.1761814 C55.8483578,54.3267726 57.9816179,55.104613 59.4141609,54.3516469 C60.9726698,53.5323494 60.6743296,50.6578122 58.738943,50.3442922 Z" id="Stroke-73" stroke="#040605" stroke-width="1.89" stroke-linecap="round" stroke-linejoin="round"></path>
                        <path d="M54.2151706,55.7442104 C53.7855851,55.8360105 53.4607111,56.1972141 53.4056705,56.7184912 C53.3407852,57.3343363 53.8392833,57.9261935 54.5655512,57.8740657 C55.3115084,57.8205541 55.7464637,57.0547841 55.4775253,56.3845048 C55.265865,55.8567693 54.7713942,55.6251931 54.2151706,55.7442104" id="Fill-75" fill="#FFFFFE"></path>
                        <path d="M54.2151706,55.7442104 C53.7855851,55.8360105 53.4607111,56.1972141 53.4056705,56.7184912 C53.3407852,57.3343363 53.8392833,57.9261935 54.5655512,57.8740657 C55.3115084,57.8205541 55.7464637,57.0547841 55.4775253,56.3845048 C55.265865,55.8567693 54.7713942,55.6251931 54.2151706,55.7442104 Z" id="Stroke-77" stroke="#040605" stroke-width="1.89" stroke-linecap="round" stroke-linejoin="round"></path>
                        <path d="M32.5814992,52.4681818 C32.0205342,52.4681818 31.4515824,52.8596896 31.3158044,53.5162027 C31.1269368,54.4257209 31.8316667,55.1227348 32.6308303,55.1702358 C33.4191881,55.2167367 34.0440485,54.6077245 33.9768643,53.728707 C33.9129688,52.8956904 33.2580398,52.4681818 32.5814992,52.4681818" id="Fill-79" fill="#FFFFFE"></path>
                        <path d="M32.5814992,52.4681818 C32.0205342,52.4681818 31.4515824,52.8596896 31.3158044,53.5162027 C31.1269368,54.4257209 31.8316667,55.1227348 32.6308303,55.1702358 C33.4191881,55.2167367 34.0440485,54.6077245 33.9768643,53.728707 C33.9129688,52.8956904 33.2580398,52.4681818 32.5814992,52.4681818 Z" id="Stroke-81" stroke="#040605" stroke-width="1.89" stroke-linecap="round" stroke-linejoin="round"></path>
                        <path d="M77.1333333,77.041445 C76.4960403,74.1276243 75.5188901,71.5151487 74.2077339,68.8938389 C71.7590072,63.9972263 67.7138785,60.5818182 64.0183588,60.5818182 C60.8694387,60.5818182 58.6445203,60.9410765 54.8046711,64.4330479 C51.6162554,67.3326357 50.6668984,68.8859863 49.596129,69.0764128 C48.8193823,69.0126101 47.0991299,67.3311633 44.0911261,64.8487471 C41.3703187,62.6038733 37.5987334,61.9903857 35.1768247,64.577831 C32.9850632,66.9198812 32.6125368,70.8300058 35.5698302,74.1526546 C38.587586,77.5430324 42.7512016,81.205308 48.3576252,81.5640755 C53.6368693,81.9022299 56.5658819,79.4934322 58.7493543,77.6971405 L63.1787118,83.3" id="Fill-83" fill="#EE9F3F"></path>
                        <path d="M64.481711,85.4034727 L58.0406461,91.8343292 C52.4830642,92.9310494 49.5857096,93.7681477 45.5051625,96.1275519 C42.8449352,97.6658718 41.6148062,100.376129 42.2274261,103.121327 C43.2947439,107.900794 49.8585283,107.456768 54.3145679,106.445942 C59.2678416,105.321561 61.7114762,105.079894 65.9773249,103.853606 C71.0494068,102.395842 74.3564785,99.7622573 76.2080279,95.791742 C77.3961096,93.2445366 78.2121212,90.2984357 78.2121212,86.0993562 C78.2121212,82.413697 77.8297838,79.2205914 77.071465,76.2681818" id="Fill-85" fill="#EE9F3F"></path>
                        <path d="M58.8546508,77.6572292 C56.6620935,79.4492807 53.7213835,81.8523924 48.419684,81.5150363 C42.7899333,81.156626 38.6089939,77.5034849 35.5786819,74.1211101 C32.6090839,70.8063044 32.9831602,66.9054098 35.1840412,64.568888 C37.6160269,61.9875504 41.4033049,62.5991002 44.135433,64.8391646 C47.1559524,67.3152314 48.8833624,68.9931987 49.6633409,69.0563612 C50.7385655,68.8663842 51.6923622,67.3167003 54.8935546,64.423957 C58.7493806,60.9402285 60.9835563,60.5818182 64.1455785,60.5818182 C67.8564743,60.5818182 71.918434,63.9896538 74.3778389,68.8747079 C76.9204807,73.9257471 78.2121212,79.0800985 78.2121212,85.9104588 C78.2121212,90.1477303 77.3949309,93.1197939 76.2056228,95.6898699 C74.3509093,99.696525 71.0390608,102.353266 65.9596528,103.824119 C61.688132,105.061418 59.2409678,105.305744 54.2800499,106.439731 C49.817574,107.460123 43.2443087,107.908136 42.1759389,103.085265 C41.5619446,100.315419 42.7938503,97.580827 45.4579201,96.028695 C49.5443612,93.6485959 52.4463904,92.8039815 58.0115102,91.6969245" id="Stroke-87" stroke="#040605" stroke-width="1.89" stroke-linecap="round" stroke-linejoin="round"></path>
                        <path d="M35.4514426,59.7994715 C33.076131,60.8193314 31.0146803,63.8259635 30.7931898,66.8726775 C30.639239,68.9821694 30.8537769,70.4785577 31.4934176,71.7869078 C32.132065,73.0937734 33.0359051,73.8226689 33.6447557,75.3304385 C33.9973526,76.2033317 34.4090468,77.3122624 35.2756408,77.9506026 C36.1834538,78.6201176 37.8570478,78.728487 38.5304583,77.3760964 C39.183011,76.0657669 38.1565069,74.8247147 38.5920387,73.5411064 C38.7628744,73.037362 39.2123113,72.653863 39.7362406,72.5479678 C40.5189066,72.3906095 41.2062223,72.601905 42.0102427,72.4786905 C43.4131813,72.2629414 44.5360289,71.2559473 44.2499784,68.9178405 C43.949526,66.4614676 45.762669,67.1017872 46.5805946,65.4881224 C47.2882716,64.0907015 47.0712507,62.333039 44.4213107,60.6303035 C41.3368322,58.6489745 38.466395,58.5049768 35.4514426,59.7994715" id="Fill-89" fill="#FFFFFE"></path>
                        <path d="M35.4514426,59.7994715 C33.076131,60.8193314 31.0146803,63.8259635 30.7931898,66.8726775 C30.639239,68.9821694 30.8537769,70.4785577 31.4934176,71.7869078 C32.132065,73.0937734 33.0359051,73.8226689 33.6447557,75.3304385 C33.9973526,76.2033317 34.4090468,77.3122624 35.2756408,77.9506026 C36.1834538,78.6201176 37.8570478,78.728487 38.5304583,77.3760964 C39.183011,76.0657669 38.1565069,74.8247147 38.5920387,73.5411064 C38.7628744,73.037362 39.2123113,72.653863 39.7362406,72.5479678 C40.5189066,72.3906095 41.2062223,72.601905 42.0102427,72.4786905 C43.4131813,72.2629414 44.5360289,71.2559473 44.2499784,68.9178405 C43.949526,66.4614676 45.762669,67.1017872 46.5805946,65.4881224 C47.2882716,64.0907015 47.0712507,62.333039 44.4213107,60.6303035 C41.3368322,58.6489745 38.466395,58.5049768 35.4514426,59.7994715 Z" id="Stroke-91" stroke="#040605" stroke-width="1.89" stroke-linecap="round" stroke-linejoin="round"></path>
                        <path d="M11.3512506,74.294945 C11.4057022,73.9457616 11.5582648,73.6872173 11.7696941,73.4772119 C12.1866659,73.0616589 12.9033669,72.7298108 13.8849676,72.5856798 C14.9730187,72.4261946 15.5764015,72.46879 16.0610699,72.5896421 C16.55604,72.7129707 16.8425241,72.9868692 17.0088223,73.3167361 C17.2074971,73.7124774 17.1545172,74.0889021 17.0985939,74.3152522 C17.005879,74.6892004 16.7856198,74.9135693 16.7645259,75.3157494 C16.7306776,75.9571572 17.1167444,78.4435414 17.2442888,79.3865843 C17.3458337,80.1414149 17.0215767,80.7659827 14.8906055,81.0790095 C13.7824416,81.2414665 12.668391,81.1092226 12.5506577,80.017591 C12.428019,78.8769251 12.1645909,76.6589912 12.0311599,76.1691438 C11.9502183,75.872957 11.6661869,75.6624563 11.4861532,75.2919752 C11.3689106,75.0502709 11.283554,74.7268429 11.3512506,74.294945" id="Fill-93" fill="#E3D374"></path>
                        <path d="M16.7212121,75.5382422 C16.6432295,75.4391173 16.6602721,74.9202606 16.704686,74.1045455 C16.2207808,74.8046149 14.5692025,76.0989172 11.8666667,76.6466854 C11.8666667,76.6466854 12.0107537,77.4076753 12.0773746,77.8909091 C13.3188988,77.7148592 15.2540032,77.2558904 16.7212121,75.5382422" id="Fill-95" fill="#FFFFFE"></path>
                        <path d="M17.2606061,77.3101059 C17.2606061,77.0303656 17.1923035,76.6735885 17.0940264,76.2681818 C16.7638153,76.6032923 14.8228423,78.4935853 11.8666667,78.8946586 C11.8666667,78.8946586 11.9123655,79.6038796 11.9762456,80.0545455 C13.1570452,79.8903606 16.0444268,79.0997694 17.2606061,77.3101059" id="Fill-97" fill="#FFFFFE"></path>
                        <path d="M11.3512506,74.294945 C11.4057022,73.9457616 11.5582648,73.6872173 11.7696941,73.4772119 C12.1866659,73.0616589 12.9033669,72.7298108 13.8849676,72.5856798 C14.9730187,72.4261946 15.5764015,72.46879 16.0610699,72.5896421 C16.55604,72.7129707 16.8425241,72.9868692 17.0088223,73.3167361 C17.2074971,73.7124774 17.1545172,74.0889021 17.0985939,74.3152522 C17.005879,74.6892004 16.7856198,74.9135693 16.7645259,75.3157494 C16.7306776,75.9571572 17.1167444,78.4435414 17.2442888,79.3865843 C17.3458337,80.1414149 17.0215767,80.7659827 14.8906055,81.0790095 C13.7824416,81.2414665 12.668391,81.1092226 12.5506577,80.017591 C12.428019,78.8769251 12.1645909,76.6589912 12.0311599,76.1691438 C11.9502183,75.872957 11.6661869,75.6624563 11.4861532,75.2919752 C11.3689106,75.0502709 11.283554,74.7268429 11.3512506,74.294945 Z" id="Stroke-99" stroke="#0F1216" stroke-width="1.89" stroke-linecap="round" stroke-linejoin="round"></path>
                        <path d="M12.6989782,64.9090909 C12.6989782,64.9090909 10.4423537,67.7617966 10.8334078,70.3756347 C11.1896904,72.7584369 12.739797,73.1142909 13.7491804,73.0056257 C14.7585638,72.896471 16.4588431,71.9478534 16.1433793,69.8293719 C15.7588763,67.2478397 12.6989782,64.9090909 12.6989782,64.9090909" id="Fill-101" fill="#AD292E"></path>
                        <path d="M12.6989782,64.9090909 C12.6989782,64.9090909 10.4423537,67.7617966 10.8334078,70.3756347 C11.1896904,72.7584369 12.739797,73.1142909 13.7491804,73.0056257 C14.7585638,72.896471 16.4588431,71.9478534 16.1433793,69.8293719 C15.7588763,67.2478397 12.6989782,64.9090909 12.6989782,64.9090909 Z" id="Stroke-103" stroke="#0F1216" stroke-width="1.89" stroke-linecap="round" stroke-linejoin="round"></path>
                        <path d="M13.5096243,68.6954545 C13.5096243,68.6954545 12.8383938,69.831095 12.9602414,70.8772899 C13.0718281,71.8308445 13.5369865,71.9761938 13.839254,71.9346654 C14.141949,71.8936695 14.649861,71.5183171 14.5511003,70.6701806 C14.4309629,69.6372961 13.5096243,68.6954545 13.5096243,68.6954545" id="Fill-105" fill="#F3B229"></path>
                        <path d="M22.6545886,66.5318182 C21.555453,66.5318182 20.4969697,67.2267158 20.4969697,68.6562342 C20.4969697,70.2673442 21.6636897,70.8528741 22.7064202,70.8590647 C23.4828785,70.8631918 24.9163789,70.3803231 24.8061096,68.5700813 C24.7354763,67.4041804 23.6886805,66.5318182 22.6545886,66.5318182" id="Fill-107" fill="#FFFFFE"></path>
                        <path d="M22.6545886,66.5318182 C21.555453,66.5318182 20.4969697,67.2267158 20.4969697,68.6562342 C20.4969697,70.2673442 21.6636897,70.8528741 22.7064202,70.8590647 C23.4828785,70.8631918 24.9163789,70.3803231 24.8061096,68.5700813 C24.7354763,67.4041804 23.6886805,66.5318182 22.6545886,66.5318182 Z" id="Stroke-109" stroke="#040605" stroke-width="1.89" stroke-linecap="round" stroke-linejoin="round"></path>
                        <path d="M5.2765189,60.0409091 C4.10653924,60.0409091 3.31598524,60.7478202 3.07746036,61.4973814 C2.76697544,62.4734286 3.07746036,62.9009088 2.87164458,63.5132056 C2.64268082,64.1941346 2.54656637,65.2015565 3.17508447,66.0986767 C3.91380711,67.1536509 5.47176712,68.5679634 7.48664821,68.0404764 C9.27659128,67.5713266 10.3137216,65.4653001 9.32791942,63.5445803 C8.34211721,61.6238606 7.10923542,60.0409091 5.2765189,60.0409091" id="Fill-111" fill="#FFFFFE"></path>
                        <path d="M5.2765189,60.0409091 C4.10653924,60.0409091 3.31598524,60.7478202 3.07746036,61.4973814 C2.76697544,62.4734286 3.07746036,62.9009088 2.87164458,63.5132056 C2.64268082,64.1941346 2.54656637,65.2015565 3.17508447,66.0986767 C3.91380711,67.1536509 5.47176712,68.5679634 7.48664821,68.0404764 C9.27659128,67.5713266 10.3137216,65.4653001 9.32791942,63.5445803 C8.34211721,61.6238606 7.10923542,60.0409091 5.2765189,60.0409091 Z" id="Stroke-113" stroke="#040605" stroke-width="1.89" stroke-linecap="round" stroke-linejoin="round"></path>
                        <path d="M1.65992173,53.0193507 C0.690325576,53.1164072 0.044251015,53.8378272 0.00211571753,54.7963853 C-0.0608450718,56.2487309 1.29523347,56.9071142 2.22414727,56.7800402 C3.20924146,56.6449616 4.1042533,55.5523254 3.65771601,54.2580719 C3.39085912,53.4826204 2.59949043,52.9257962 1.65992173,53.0193507" id="Fill-115" fill="#FFFFFE"></path>
                        <path d="M1.65992173,53.0193507 C0.690325576,53.1164072 0.044251015,53.8378272 0.00211571753,54.7963853 C-0.0608450718,56.2487309 1.29523347,56.9071142 2.22414727,56.7800402 C3.20924146,56.6449616 4.1042533,55.5523254 3.65771601,54.2580719 C3.39085912,53.4826204 2.59949043,52.9257962 1.65992173,53.0193507 Z" id="Stroke-117" stroke="#040605" stroke-width="1.89" stroke-linecap="round" stroke-linejoin="round"></path>
                    </g>
                </g>
            </g>
        </g>
    </g>
</svg>