<?xml version="1.0" encoding="UTF-8"?>
<svg width="40px" height="40px" viewBox="0 0 40 40" version="1.1" xmlns="http://www.w3.org/2000/svg" xmlns:xlink="http://www.w3.org/1999/xlink">
    <!-- Generator: Sketch 54.1 (76490) - https://sketchapp.com -->
    <title>cake</title>
    <desc>Created with Sketch.</desc>
    <g id="Page-1" stroke="none" stroke-width="1" fill="none" fill-rule="evenodd">
        <g id="birthday" transform="translate(-1175.000000, -658.000000)" fill="#E2737A">
            <g id="cake" transform="translate(1175.000000, 658.000000)">
                <rect id="Rectangle" x="0" y="0" width="40" height="40"></rect>
                <rect id="Rectangle" stroke="#FFFFFF" stroke-width="1.2" x="11.7764706" y="18.5615385" width="16.4470588" height="9.8384615" rx="1.2"></rect>
                <path d="M22.005241,23.019658 C22.5559372,22.5692368 23.3134761,22.3123931 24.1176471,22.3123931 C25.2036489,22.3123931 26.1964889,22.7819596 26.7111372,23.5407266 C26.9882377,23.6610052 27.3094362,23.726923 27.6470588,23.726923 C28.6463954,23.726923 29.4,23.1606124 29.4,22.5587606 C29.3998241,22.5388098 29.3998241,22.5388098 29.3990466,22.4540691 C29.3998386,22.4370044 29.3998386,22.4370044 29.4,22.419658 L29.4,19.1615385 C29.4,18.8301676 29.1313708,18.5615385 28.8,18.5615385 L11.2,18.5615385 C10.8686292,18.5615385 10.6,18.8301676 10.6,19.1615385 L10.6,22.419658 C10.6001614,22.4370044 10.6001614,22.4370044 10.6010457,22.5190547 C10.6001759,22.5388098 10.6001759,22.5388098 10.6,22.5587606 C10.6,23.1606124 11.3536046,23.726923 12.3529412,23.726923 C12.6905638,23.726923 13.0117623,23.6610052 13.2888628,23.5407266 C13.8035111,22.7819596 14.7963511,22.3123931 15.8823529,22.3123931 C16.6865239,22.3123931 17.4440628,22.5692368 17.994759,23.019658 L18.3660824,23.019658 L18.5418347,23.1954899 C18.866837,23.5206392 19.4041838,23.726923 20,23.726923 C20.5958162,23.726923 21.133163,23.5206392 21.4581653,23.1954899 L21.6339176,23.019658 L22.005241,23.019658 Z" id="Combined-Shape" stroke="#FFFFFF" stroke-width="1.2"></path>
                <rect id="Rectangle" stroke="#FFFFFF" stroke-width="1.2" x="15.3058824" y="15.5807692" width="1.15294118" height="2.8" rx="0.576470588"></rect>
                <path d="M15.8823529,13.7846154 C16.3415998,13.7846154 16.4588235,13.7108513 16.4588235,13.5194937 C16.4588235,13.2251356 15.9374704,12.6 15.8823529,12.6 C15.8272355,12.6 15.3058824,13.2251356 15.3058824,13.5194937 C15.3058824,13.7108513 15.4231061,13.7846154 15.8823529,13.7846154 Z" id="Oval" stroke="#FFFFFF" stroke-width="1.2"></path>
                <path d="M20,13.7846154 C20.4592468,13.7846154 20.5764706,13.7108513 20.5764706,13.5194937 C20.5764706,13.2251356 20.0551174,12.6 20,12.6 C19.9448826,12.6 19.4235294,13.2251356 19.4235294,13.5194937 C19.4235294,13.7108513 19.5407532,13.7846154 20,13.7846154 Z" id="Oval" stroke="#FFFFFF" stroke-width="1.2"></path>
                <path d="M24.1176471,13.7846154 C24.5768939,13.7846154 24.6941176,13.7108513 24.6941176,13.5194937 C24.6941176,13.2251356 24.1727645,12.6 24.1176471,12.6 C24.0625296,12.6 23.5411765,13.2251356 23.5411765,13.5194937 C23.5411765,13.7108513 23.6584002,13.7846154 24.1176471,13.7846154 Z" id="Oval" stroke="#FFFFFF" stroke-width="1.2"></path>
                <rect id="Rectangle" stroke="#FFFFFF" stroke-width="1.2" x="19.4235294" y="15.5807692" width="1.15294118" height="2.8" rx="0.576470588"></rect>
                <rect id="Rectangle" stroke="#FFFFFF" stroke-width="1.2" x="23.5411765" y="15.5807692" width="1.15294118" height="2.8" rx="0.576470588"></rect>
            </g>
        </g>
    </g>
</svg>